<svg xmlns="http://www.w3.org/2000/svg" width="203.367" height="36" viewBox="0 0 203.367 36">
  <g id="Raggruppa_526" data-name="Raggruppa 526" transform="translate(789 -191)">
    <g id="Raggruppa_525" data-name="Raggruppa 525" transform="translate(-789 191)">
      <g id="Raggruppa_523" data-name="Raggruppa 523" transform="translate(46.292 9.138)">
        <g id="Raggruppa_521" data-name="Raggruppa 521" transform="translate(0 0.003)">
          <path id="Tracciato_2798" data-name="Tracciato 2798" d="M1870.292,593.713V596.8h-12.8V579.65h3.43v14.064Z" transform="translate(-1785.03 -579.365)"/>
          <path id="Tracciato_2799" data-name="Tracciato 2799" d="M1012.1,579.665v17.15h8.574a8.576,8.576,0,0,0,8.576-8.576h0a8.576,8.576,0,0,0-8.576-8.574Zm8,13.724h-4.576v-10.3h4.574a5.145,5.145,0,0,1,5.145,5.145h0a5.145,5.145,0,0,1-5.145,5.145h0Z" transform="translate(-1012.097 -579.379)"/>
          <path id="Tracciato_2800" data-name="Tracciato 2800" d="M1244.642,587.332a8.89,8.89,0,0,0,.261-2.144c0-.289-.014-.575-.041-.857a8.862,8.862,0,0,0-17.641,0c-.028.282-.042.567-.042.857a8.863,8.863,0,0,0,16.841,3.859h-4.358a4.955,4.955,0,0,1-7,.236q-.122-.114-.236-.236a5.467,5.467,0,0,1-1.108-1.715Zm-13.682-3a5.11,5.11,0,0,1,10.164,0Z" transform="translate(-1208.744 -576.328)"/>
          <path id="Tracciato_2801" data-name="Tracciato 2801" d="M1642.618,587.332a8.872,8.872,0,0,0,.261-2.144c0-.289-.014-.575-.041-.857a8.862,8.862,0,0,0-17.641,0c-.027.282-.042.567-.042.857a8.863,8.863,0,0,0,16.84,3.859h-4.356a4.955,4.955,0,0,1-7,.237q-.122-.115-.237-.237a5.456,5.456,0,0,1-1.109-1.715Zm-13.682-3a5.11,5.11,0,0,1,10.163,0Z" transform="translate(-1572.608 -576.328)"/>
          <path id="Tracciato_2802" data-name="Tracciato 2802" d="M1446.76,579.643l-5.145,17.151h-6.86l-5.145-17.151h3.887l4.688,15.627,4.688-15.627Z" transform="translate(-1393.823 -579.359)"/>
        </g>
        <g id="Raggruppa_522" data-name="Raggruppa 522" transform="translate(87.055)">
          <path id="Tracciato_2803" data-name="Tracciato 2803" d="M2042.287,579.65V596.8h-3.43v-6.86h-7.69v6.86h-3.43V579.65h3.43v6.86h7.69v-6.86Z" transform="translate(-2027.737 -579.362)"/>
          <path id="Tracciato_2804" data-name="Tracciato 2804" d="M2465.6,581.421a5.98,5.98,0,0,0-4.244-1.756h-8.576v17.15h3.43v-5.145h5.146a6,6,0,0,0,4.245-10.248Zm-2.551,6.365a2.993,2.993,0,0,1-2.122.881h-4.717v-6h4.717a3,3,0,0,1,2.122,5.121Z" transform="translate(-2416.345 -579.376)"/>
          <path id="Tracciato_2805" data-name="Tracciato 2805" d="M2655.327,587.3a8.889,8.889,0,0,0,.261-2.144c0-.289-.014-.575-.041-.857a8.862,8.862,0,0,0-17.64,0c-.028.282-.042.567-.042.857a8.863,8.863,0,0,0,16.84,3.859h-4.358a4.955,4.955,0,0,1-7,.236q-.122-.114-.236-.236A5.462,5.462,0,0,1,2642,587.3Zm-13.682-3a5.11,5.11,0,0,1,10.164,0Z" transform="translate(-2585.568 -576.297)"/>
          <path id="Tracciato_2806" data-name="Tracciato 2806" d="M2231.549,576.308a8.862,8.862,0,1,0,8.862,8.862,8.861,8.861,0,0,0-8.862-8.862Zm0,14.291a5.439,5.439,0,1,1,5.146-5.431,5.294,5.294,0,0,1-5.146,5.431Z" transform="translate(-2205.978 -576.307)"/>
        </g>
      </g>
      <g id="Raggruppa_524" data-name="Raggruppa 524" transform="translate(0 0)">
        <path id="Tracciato_2807" data-name="Tracciato 2807" d="M490.021,469.686a18,18,0,1,0,18,18A18,18,0,0,0,490.021,469.686Zm7.722,19.713h-2.571a3.43,3.43,0,0,0-3.429,3.429h-3.429a3.43,3.43,0,0,0-3.429-3.429h-2.572a6.859,6.859,0,0,1-6.64-5.142h3.671a3.427,3.427,0,0,0,2.969,1.714h2.572a6.84,6.84,0,0,1,5.144,2.321,6.84,6.84,0,0,1,5.144-2.321h2.571a3.429,3.429,0,0,0,2.97-1.714h3.671A6.861,6.861,0,0,1,497.743,489.4Z" transform="translate(-472.021 -469.686)"/>
      </g>
    </g>
  </g>
</svg>
